#Comment line ignore any data following # character 
#Hierarchical Translation and Rotation (.htr) file 
[Header]	
#Header keywords are followed by a single value 
FileType HTR		#Single word string
DataType HTRS		#Translation followed by rotation and scale data
FileVersion 1		#integer
NumSegments 64		#integer
NumFrames 3		#integer
DataFrameRate 30		#integer, data frame rate in this file
EulerRotationOrder ZYX
CalibrationUnits mm
RotationUnits Degrees
GlobalAxisofGravity Y
BoneLengthAxis Y
ScaleFactor 1.00
[SegmentNames&Hierarchy]
#CHILD	PARENT
Pinger_Root GLOBAL
Pelvis Pinger_Root
L_Hip Pelvis
R_Hip Pelvis
Rear_Leg01 Pelvis
Spine1 Pelvis
L_Leg01 L_Hip
L_Leg02 L_Leg01
L_Leg03 L_Leg02
L_Foot L_Leg03
L_Toe1_01 L_Foot
L_Toe2_01 L_Foot
L_Toe3_01 L_Foot
planeAlignerLeft L_Foot
L_Toe1_02 L_Toe1_01
L_Toe1_03 L_Toe1_02
L_Toe2_02 L_Toe2_01
L_Toe2_03 L_Toe2_02
L_Toe3_02 L_Toe3_01
L_Toe3_03 L_Toe3_02
planeLockWeightLeft planeAlignerLeft
R_Leg01 R_Hip
R_Leg02 R_Leg01
R_Leg03 R_Leg02
R_Foot R_Leg03
planeAlignerRight R_Foot
R_Toe1_01 R_Foot
R_Toe2_01 R_Foot
R_Toe3_01 R_Foot
planeLockWeightRight planeAlignerRight
R_Toe1_02 R_Toe1_01
R_Toe1_03 R_Toe1_02
R_Toe2_02 R_Toe2_01
R_Toe2_03 R_Toe2_02
R_Toe3_02 R_Toe3_01
R_Toe3_03 R_Toe3_02
Rear_Leg02 Rear_Leg01
Rear_Leg03 Rear_Leg02
Rear_Leg04 Rear_Leg03
Rear_Foot Rear_Leg04
planeAlignerCenter Rear_Foot
Rear_Toe1_01 Rear_Foot
Rear_Toe2_01 Rear_Foot
Rear_Toe3_01 Rear_Foot
planeLockWeightCenter planeAlignerCenter
Rear_Toe1_02 Rear_Toe1_01
Rear_Toe1_03 Rear_Toe1_02
Rear_Toe2_02 Rear_Toe2_01
Rear_Toe2_03 Rear_Toe2_02
Rear_Toe3_02 Rear_Toe3_01
Rear_Toe3_03 Rear_Toe3_02
Back_Bone Spine1
Head Spine1
Motor_Bone Back_Bone
Ping_Mechanism Back_Bone
BN_LookIK Head
bottomMouth Head
L_Mouth01 Head
L_mouthFront Head
mouthGun Head
R_Mouth01 Head
R_mouthFront Head
TopMouth Head
weapon_bone Head
[BasePosition]
#SegmentName Tx, Ty, Tz, Rx, Ry, Rz, BoneLength
Pinger_Root 0.000000 0.000000 0.000000 -90.000000 0.000000 0.000000 10.000000 
Pelvis 0.000000 0.000000 0.000000 0.000000 0.000000 0.000000 10.000000 
L_Hip 0.000000 0.000000 0.000000 0.000000 0.000000 0.000000 10.000000 
R_Hip 0.000000 0.000000 0.000000 0.000000 0.000000 0.000000 10.000000 
Rear_Leg01 0.000000 0.000000 0.000000 0.000000 0.000000 0.000000 10.000000 
Spine1 0.000000 0.000000 0.000000 0.000000 0.000000 0.000000 10.000000 
L_Leg01 0.000000 0.000000 0.000000 0.000000 0.000000 0.000000 10.000000 
L_Leg02 0.000000 0.000000 0.000000 0.000000 0.000000 0.000000 10.000000 
L_Leg03 0.000000 0.000000 0.000000 0.000000 0.000000 0.000000 10.000000 
L_Foot 0.000000 0.000000 0.000000 0.000000 0.000000 0.000000 10.000000 
L_Toe1_01 0.000000 0.000000 0.000000 0.000000 0.000000 0.000000 10.000000 
L_Toe2_01 0.000000 0.000000 0.000000 0.000000 0.000000 0.000000 10.000000 
L_Toe3_01 0.000000 0.000000 0.000000 0.000000 0.000000 0.000000 10.000000 
planeAlignerLeft 0.000000 0.000000 0.000000 0.000000 0.000000 0.000000 10.000000 
L_Toe1_02 0.000000 0.000000 0.000000 0.000000 0.000000 0.000000 10.000000 
L_Toe1_03 0.000000 0.000000 0.000000 0.000000 0.000000 0.000000 10.000000 
L_Toe2_02 0.000000 0.000000 0.000000 0.000000 0.000000 0.000000 10.000000 
L_Toe2_03 0.000000 0.000000 0.000000 0.000000 0.000000 0.000000 10.000000 
L_Toe3_02 0.000000 0.000000 0.000000 0.000000 0.000000 0.000000 10.000000 
L_Toe3_03 0.000000 0.000000 0.000000 0.000000 0.000000 0.000000 10.000000 
planeLockWeightLeft 0.000000 0.000000 0.000000 0.000000 0.000000 0.000000 10.000000 
R_Leg01 0.000000 0.000000 0.000000 0.000000 0.000000 0.000000 10.000000 
R_Leg02 0.000000 0.000000 0.000000 0.000000 0.000000 0.000000 10.000000 
R_Leg03 0.000000 0.000000 0.000000 0.000000 0.000000 0.000000 10.000000 
R_Foot 0.000000 0.000000 0.000000 0.000000 0.000000 0.000000 10.000000 
planeAlignerRight 0.000000 0.000000 0.000000 0.000000 0.000000 0.000000 10.000000 
R_Toe1_01 0.000000 0.000000 0.000000 0.000000 0.000000 0.000000 10.000000 
R_Toe2_01 0.000000 0.000000 0.000000 0.000000 0.000000 0.000000 10.000000 
R_Toe3_01 0.000000 0.000000 0.000000 0.000000 0.000000 0.000000 10.000000 
planeLockWeightRight 0.000000 0.000000 0.000000 0.000000 0.000000 0.000000 10.000000 
R_Toe1_02 0.000000 0.000000 0.000000 0.000000 0.000000 0.000000 10.000000 
R_Toe1_03 0.000000 0.000000 0.000000 0.000000 0.000000 0.000000 10.000000 
R_Toe2_02 0.000000 0.000000 0.000000 0.000000 0.000000 0.000000 10.000000 
R_Toe2_03 0.000000 0.000000 0.000000 0.000000 0.000000 0.000000 10.000000 
R_Toe3_02 0.000000 0.000000 0.000000 0.000000 0.000000 0.000000 10.000000 
R_Toe3_03 0.000000 0.000000 0.000000 0.000000 0.000000 0.000000 10.000000 
Rear_Leg02 0.000000 0.000000 0.000000 0.000000 0.000000 0.000000 10.000000 
Rear_Leg03 0.000000 0.000000 0.000000 0.000000 0.000000 0.000000 10.000000 
Rear_Leg04 0.000000 0.000000 0.000000 0.000000 0.000000 0.000000 10.000000 
Rear_Foot 0.000000 0.000000 0.000000 0.000000 0.000000 0.000000 10.000000 
planeAlignerCenter 0.000000 0.000000 0.000000 0.000000 0.000000 0.000000 10.000000 
Rear_Toe1_01 0.000000 0.000000 0.000000 0.000000 0.000000 0.000000 10.000000 
Rear_Toe2_01 0.000000 0.000000 0.000000 0.000000 0.000000 0.000000 10.000000 
Rear_Toe3_01 0.000000 0.000000 0.000000 0.000000 0.000000 0.000000 10.000000 
planeLockWeightCenter 0.000000 0.000000 0.000000 0.000000 0.000000 0.000000 10.000000 
Rear_Toe1_02 0.000000 0.000000 0.000000 0.000000 0.000000 0.000000 10.000000 
Rear_Toe1_03 0.000000 0.000000 0.000000 0.000000 0.000000 0.000000 10.000000 
Rear_Toe2_02 0.000000 0.000000 0.000000 0.000000 0.000000 0.000000 10.000000 
Rear_Toe2_03 0.000000 0.000000 0.000000 0.000000 0.000000 0.000000 10.000000 
Rear_Toe3_02 0.000000 0.000000 0.000000 0.000000 0.000000 0.000000 10.000000 
Rear_Toe3_03 0.000000 0.000000 0.000000 0.000000 0.000000 0.000000 10.000000 
Back_Bone 0.000000 0.000000 0.000000 0.000000 0.000000 0.000000 10.000000 
Head 0.000000 0.000000 0.000000 0.000000 0.000000 0.000000 10.000000 
Motor_Bone 0.000000 0.000000 0.000000 0.000000 0.000000 0.000000 10.000000 
Ping_Mechanism 0.000000 0.000000 0.000000 0.000000 0.000000 0.000000 10.000000 
BN_LookIK 0.000000 0.000000 0.000000 0.000000 0.000000 0.000000 10.000000 
bottomMouth 0.000000 0.000000 0.000000 0.000000 0.000000 0.000000 10.000000 
L_Mouth01 0.000000 0.000000 0.000000 0.000000 0.000000 0.000000 10.000000 
L_mouthFront 0.000000 0.000000 0.000000 0.000000 0.000000 0.000000 10.000000 
mouthGun 0.000000 0.000000 0.000000 0.000000 0.000000 0.000000 10.000000 
R_Mouth01 0.000000 0.000000 0.000000 0.000000 0.000000 0.000000 10.000000 
R_mouthFront 0.000000 0.000000 0.000000 0.000000 0.000000 0.000000 10.000000 
TopMouth 0.000000 0.000000 0.000000 0.000000 0.000000 0.000000 10.000000 
weapon_bone 0.000000 0.000000 0.000000 0.000000 0.000000 0.000000 10.000000 
#Beginning of Data. Separated by tabs
#Fr	Tx	Ty	Tz	Rx	Ry	Rz	SF
[Pinger_Root]
170 0.000000 0.000000 0.000000 -0.000075 -0.000000 -0.000020 0.000000
171 0.000000 0.000000 0.000000 -0.000075 -0.000000 -0.000020 0.000000
172 0.000000 0.000000 0.000000 -0.000075 -0.000000 -0.000020 0.000000
[Pelvis]
170 -133.457138 984.407227 3799.789551 -153.905380 -80.962387 146.545105 3927.501465
171 -133.601379 984.507751 3799.404297 -153.905380 -80.962410 146.545105 3927.158936
172 -133.745636 984.608215 3799.019287 -153.905380 -80.962456 146.545105 3926.816406
[L_Hip]
170 5.766392 125.831482 872.656799 128.419113 -46.145309 174.188553 881.701050
171 5.766392 125.831482 872.656799 128.423813 -46.143803 174.181107 881.701050
172 5.766392 125.831482 872.656799 128.428513 -46.142307 174.173676 881.701050
[R_Hip]
170 5.765438 125.836372 -872.654907 37.094105 50.453194 124.408180 881.699829
171 5.765438 125.836372 -872.654907 37.095169 50.452595 124.409508 881.699829
172 5.765438 125.836372 -872.654907 37.096233 50.451981 124.410858 881.699829
[Rear_Leg01]
170 -192.298416 -925.602966 -0.001907 167.496735 -1.141644 -153.973282 945.367432
171 -192.298416 -925.602966 -0.001907 167.499466 -1.132367 -153.970978 945.367432
172 -192.298416 -925.602966 -0.001907 167.502213 -1.123089 -153.968674 945.367432
[Spine1]
170 290.604584 5.007505 0.000477 9.692448 4.777843 19.119242 290.647736
171 290.604584 5.007505 0.000477 9.692389 4.773601 19.118368 290.647736
172 290.604584 5.007505 0.000477 9.692330 4.769358 19.117496 290.647736
[L_Leg01]
170 761.932007 -0.002384 -0.069261 53.855991 -36.116520 22.527088 761.932068
171 761.932007 -0.002384 -0.069261 53.849094 -36.127209 22.533901 761.932068
172 761.932007 -0.002384 -0.069261 53.842197 -36.137886 22.540718 761.932068
[L_Leg02]
170 1441.140503 -0.000954 -0.000715 8.567362 4.921918 -142.083237 1441.140503
171 1441.140503 -0.000954 -0.000715 8.570114 4.926684 -142.125290 1441.140503
172 1441.140503 -0.000954 -0.000715 8.572867 4.931453 -142.167358 1441.140503
[L_Leg03]
170 1686.963989 -0.000715 -0.000954 -0.143159 0.095719 148.752548 1686.963989
171 1686.963989 -0.000715 -0.000954 -0.143176 0.095834 148.765503 1686.963989
172 1686.963989 -0.000715 -0.000954 -0.143193 0.095950 148.778458 1686.963989
[L_Foot]
170 3041.570068 -30.715107 11.297464 -14.547919 44.983459 35.894264 3041.746094
171 3041.570068 -30.715107 11.297464 -14.539554 44.981998 35.914360 3041.746094
172 3041.570068 -30.715107 11.297464 -14.531183 44.980530 35.934444 3041.746094
[L_Toe1_01]
170 -188.216690 -224.732346 -21.137953 95.647339 -5.538862 169.273575 293.899567
171 -188.216690 -224.732346 -21.137953 95.647301 -5.539033 169.274536 293.899567
172 -188.216690 -224.732346 -21.137953 95.647255 -5.539206 169.275497 293.899567
[L_Toe2_01]
170 200.746536 -219.926590 148.838394 -96.545700 -26.054049 -37.653652 332.896027
171 200.746536 -219.926590 148.838394 -96.545380 -26.054079 -37.654400 332.896027
172 200.746536 -219.926590 148.838394 -96.545074 -26.054125 -37.655170 332.896027
[L_Toe3_01]
170 188.832520 -219.859131 -191.078659 -96.728081 17.868013 -55.974499 347.140900
171 188.832520 -219.859131 -191.078659 -96.728203 17.867727 -55.975208 347.140900
172 188.832520 -219.859131 -191.078659 -96.728317 17.867441 -55.975906 347.140900
[planeAlignerLeft]
170 0.812531 -811.448792 -0.314951 0.000000 -90.000000 -90.001900 811.449280
171 0.812531 -811.448792 -0.314951 0.000000 -90.000000 -90.001900 811.449280
172 0.812531 -811.448792 -0.314951 0.000000 -90.000000 -90.001900 811.449280
[L_Toe1_02]
170 413.761139 0.000477 0.000000 0.001442 -18.965181 0.001442 413.761139
171 413.761139 0.000477 0.000000 0.001442 -18.966093 0.001442 413.761139
172 413.761139 0.000477 0.000000 0.001442 -18.967007 0.001442 413.761139
[L_Toe1_03]
170 464.317322 0.000358 -0.000089 -179.985931 85.835190 -179.982437 464.317322
171 464.317322 0.000358 -0.000089 -179.985931 85.836090 -179.982422 464.317322
172 464.317322 0.000358 -0.000089 -179.985916 85.837082 -179.982422 464.317322
[L_Toe2_02]
170 342.235809 -0.000477 0.000238 0.004685 -80.834213 0.004685 342.235809
171 342.235809 -0.000477 0.000238 0.004685 -80.833138 0.004685 342.235809
172 342.235809 -0.000477 0.000238 0.004685 -80.832069 0.004685 342.235809
[L_Toe2_03]
170 420.210846 -0.000715 0.000000 179.992340 55.912350 179.999649 420.210846
171 420.210846 -0.000715 0.000000 179.992340 55.913288 179.999649 420.210846
172 420.210846 -0.000715 0.000000 179.992340 55.914204 179.999649 420.210846
[L_Toe3_02]
170 329.270111 0.000954 0.000000 0.004675 -84.669205 0.004675 329.270111
171 329.270111 0.000954 0.000000 0.004675 -84.669128 0.004675 329.270111
172 329.270111 0.000954 0.000000 0.004675 -84.669098 0.004675 329.270111
[L_Toe3_03]
170 439.137451 -0.001907 0.000954 179.993134 45.398014 -179.999313 439.137451
171 439.137451 -0.001907 0.000954 179.993134 45.399097 -179.999313 439.137451
172 439.137451 -0.001907 0.000954 179.993134 45.400177 -179.999313 439.137451
[planeLockWeightLeft]
170 -0.000954 0.000238 -0.000305 -0.011826 -0.004376 0.005620 0.001029
171 -0.000954 0.000238 -0.000305 -0.011826 -0.004376 0.005620 0.001029
172 -0.000954 0.000238 -0.000305 -0.011826 -0.004376 0.005620 0.001029
[R_Leg01]
170 761.455627 -0.001907 -0.000358 122.801422 -15.467508 33.890148 761.455688
171 761.455627 -0.001907 -0.000358 122.797829 -15.461761 33.881950 761.455688
172 761.455627 -0.001907 -0.000358 122.794250 -15.456020 33.873749 761.455688
[R_Leg02]
170 1441.140625 0.000000 -0.000238 -2.001169 -0.541878 -137.638641 1441.140625
171 1441.140625 0.000000 -0.000238 -2.001055 -0.541901 -137.637253 1441.140625
172 1441.140625 0.000000 -0.000238 -2.002032 -0.542467 -137.663742 1441.140625
[R_Leg03]
170 1686.963989 0.000954 0.001431 0.093313 -0.054714 135.906387 1686.963989
171 1686.963989 0.000954 0.001431 0.093313 -0.054715 135.907288 1686.963989
172 1686.963989 0.000954 0.001431 0.093312 -0.054715 135.908157 1686.963989
[R_Foot]
170 3041.560059 -30.531288 -11.204481 4.272754 -24.236837 59.379501 3041.734131
171 3041.560059 -30.531288 -11.204481 4.284612 -24.236526 59.375381 3041.734131
172 3041.560059 -30.531288 -11.204481 4.296472 -24.236217 59.371269 3041.734131
[planeAlignerRight]
170 -0.635147 -812.270569 -0.364304 0.000000 -89.960434 -90.005180 812.270874
171 -0.635147 -812.270569 -0.364304 0.000000 -89.960434 -90.005180 812.270874
172 -0.635147 -812.270569 -0.364304 0.000000 -89.960434 -90.005180 812.270874
[R_Toe1_01]
170 -188.383347 -224.864899 21.052242 77.184952 -3.246292 172.321014 294.101532
171 -188.383347 -224.864899 21.052242 77.184891 -3.246174 172.321442 294.101532
172 -188.383347 -224.864899 21.052242 77.184853 -3.246061 172.321884 294.101532
[R_Toe2_01]
170 200.637817 -220.002121 -148.787384 -84.920921 32.505768 -46.619022 332.857574
171 200.637817 -220.002121 -148.787384 -84.921242 32.505760 -46.619614 332.857574
172 200.637817 -220.002121 -148.787384 -84.921539 32.505749 -46.620190 332.857574
[R_Toe3_01]
170 188.606735 -220.092957 191.126343 -74.390015 -14.479093 -66.176132 347.192566
171 188.606735 -220.092957 191.126343 -74.390007 -14.478872 -66.176605 347.192566
172 188.606735 -220.092957 191.126343 -74.390007 -14.478649 -66.177086 347.192566
[planeLockWeightRight]
170 -0.000477 0.000000 0.000000 -0.011823 -0.004379 -0.000027 0.000477
171 -0.000477 0.000000 0.000000 -0.011823 -0.004379 -0.000027 0.000477
172 -0.000477 0.000000 0.000000 -0.011823 -0.004379 -0.000027 0.000477
[R_Toe1_02]
170 413.762085 0.000477 -0.000119 0.001469 -16.010359 0.001469 413.762085
171 413.762085 0.000477 -0.000119 0.001469 -16.011002 0.001469 413.762085
172 413.762085 0.000477 -0.000119 0.001469 -16.011633 0.001469 413.762085
[R_Toe1_03]
170 464.317810 0.000000 0.001088 -179.996872 76.518761 -179.993347 464.317810
171 464.317810 0.000000 0.001088 -179.996872 76.519218 -179.993347 464.317810
172 464.317810 0.000000 0.001088 -179.996872 76.519676 -179.993347 464.317810
[R_Toe2_02]
170 342.234741 -0.000954 0.000238 -0.002333 -79.683418 -0.002333 342.234741
171 342.234741 -0.000954 0.000238 -0.002333 -79.682884 -0.002333 342.234741
172 342.234741 -0.000954 0.000238 -0.002333 -79.682312 -0.002333 342.234741
[R_Toe2_03]
170 420.210846 0.000715 -0.000268 -179.995560 65.036438 -179.999130 420.210846
171 420.210846 0.000715 -0.000268 -179.995560 65.036888 -179.999130 420.210846
172 420.210846 0.000715 -0.000268 -179.995560 65.037323 -179.999130 420.210846
[R_Toe3_02]
170 329.270355 -0.000477 -0.000954 0.001175 -83.655228 0.001175 329.270355
171 329.270355 -0.000477 -0.000954 0.001175 -83.654739 0.001175 329.270355
172 329.270355 -0.000477 -0.000954 0.001175 -83.654297 0.001175 329.270355
[R_Toe3_03]
170 439.137939 0.000238 0.001431 -179.994339 61.013042 -179.987106 439.137939
171 439.137939 0.000238 0.001431 -179.994339 61.013561 -179.987106 439.137939
172 439.137939 0.000238 0.001431 -179.994324 61.014114 -179.987106 439.137939
[Rear_Leg02]
170 1162.777710 -0.029802 0.005960 1.566353 -2.518193 -144.031815 1162.777710
171 1162.777710 -0.029802 0.005960 1.566419 -2.518066 -144.033249 1162.777710
172 1162.777710 -0.029802 0.005960 1.566484 -2.517940 -144.034653 1162.777710
[Rear_Leg03]
170 607.192505 -0.013351 -0.073195 0.010354 -0.005380 71.269272 607.192505
171 607.192505 -0.013351 -0.073195 0.010354 -0.005380 71.271225 607.192505
172 607.192505 -0.013351 -0.073195 0.010354 -0.005381 71.273170 607.192505
[Rear_Leg04]
170 995.874512 -0.020504 -0.011921 -0.041138 -0.016634 73.331146 995.874573
171 995.874512 -0.020504 -0.011921 -0.041138 -0.016633 73.332954 995.874573
172 995.874512 -0.020504 -0.011921 -0.041138 -0.016632 73.334770 995.874573
[Rear_Foot]
170 3096.176270 -0.067472 -0.041425 -115.996788 87.470284 81.953438 3096.176270
171 3096.176270 -0.067472 -0.041425 -115.817909 87.474464 82.136711 3096.176270
172 3096.176270 -0.067472 -0.041425 -115.638466 87.478577 82.320717 3096.176270
[planeAlignerCenter]
170 0.350077 0.966311 -838.790894 0.000009 0.000003 -179.999985 838.791565
171 0.350077 0.966311 -838.790894 0.000009 0.000003 -179.999985 838.791565
172 0.350077 0.966311 -838.790894 0.000009 0.000003 -179.999985 838.791565
[Rear_Toe1_01]
170 0.653352 83.966492 -371.173737 0.292952 41.139637 90.406425 380.553192
171 0.653352 83.966492 -371.173737 0.292970 41.139656 90.406425 380.553192
172 0.653352 83.966492 -371.173737 0.292993 41.139687 90.406425 380.553192
[Rear_Toe2_01]
170 178.200760 -294.826019 -362.060547 -7.263135 33.855705 -66.230499 499.765686
171 178.200760 -294.826019 -362.060547 -7.263156 33.855732 -66.230515 499.765686
172 178.200760 -294.826019 -362.060547 -7.263175 33.855751 -66.230530 499.765686
[Rear_Toe3_01]
170 -153.359680 -308.780914 -362.060852 3.322300 32.989574 -112.582558 499.952881
171 -153.359680 -308.780914 -362.060852 3.322300 32.989574 -112.582558 499.952881
172 -153.359680 -308.780914 -362.060852 3.322300 32.989574 -112.582558 499.952881
[planeLockWeightCenter]
170 -0.000062 0.000238 0.000000 -0.011814 -0.004373 -0.000015 0.000246
171 -0.000062 0.000238 0.000000 -0.011814 -0.004373 -0.000015 0.000246
172 -0.000062 0.000238 0.000000 -0.011814 -0.004373 -0.000015 0.000246
[Rear_Toe1_02]
170 379.707825 0.194073 0.000477 -0.000261 -31.944153 0.006945 379.707855
171 379.707825 0.194073 0.000477 -0.000261 -31.944153 0.006945 379.707855
172 379.707825 0.194073 0.000477 -0.000261 -31.944164 0.006945 379.707855
[Rear_Toe1_03]
170 500.129700 0.165701 0.000119 0.000045 53.309292 0.007413 500.129761
171 500.129700 0.165701 0.000119 0.000045 53.309292 0.007413 500.129761
172 500.129700 0.165701 0.000119 0.000045 53.309292 0.007413 500.129761
[Rear_Toe2_02]
170 340.494507 0.000238 -0.000954 0.001191 -70.483078 0.001191 340.494507
171 340.494507 0.000238 -0.000954 0.001191 -70.483078 0.001191 340.494507
172 340.494507 0.000238 -0.000954 0.001191 -70.483078 0.001191 340.494507
[Rear_Toe2_03]
170 433.103577 0.000000 0.000238 0.007023 70.760315 0.007023 433.103546
171 433.103577 0.000000 0.000238 0.007023 70.760300 0.007023 433.103546
172 433.103577 0.000000 0.000238 0.007023 70.760254 0.007023 433.103546
[Rear_Toe3_02]
170 340.494141 -0.000358 -0.000477 0.007984 -67.923424 -0.008882 340.494171
171 340.494141 -0.000358 -0.000477 0.008024 -67.923424 -0.008942 340.494171
172 340.494141 -0.000358 -0.000477 0.008064 -67.923424 -0.009001 340.494171
[Rear_Toe3_03]
170 433.103577 0.001431 -0.000238 0.005867 66.923080 0.005867 433.103546
171 433.103577 0.001431 -0.000238 0.005867 66.923058 0.005867 433.103546
172 433.103577 0.001431 -0.000238 0.005867 66.923004 0.005867 433.103546
[Back_Bone]
170 1312.175781 -701.934692 0.000954 1.464598 0.079962 -93.003555 1488.125488
171 1312.175781 -701.934692 0.000954 1.464600 0.077167 -93.002754 1488.125488
172 1312.175781 -701.934692 0.000954 1.464602 0.074372 -93.001968 1488.125488
[Head]
170 1406.159424 809.709290 0.001431 2.822266 -7.833895 15.262070 1622.625488
171 1406.159424 809.709290 0.001431 2.822487 -7.944073 15.265364 1622.625488
172 1406.159424 809.709290 0.001431 2.825297 -8.339606 15.264206 1622.625488
[Motor_Bone]
170 1158.364380 -417.834747 0.000477 -0.000105 0.000046 -105.985291 1231.419434
171 1158.364380 -417.834747 0.000477 -0.000105 0.000046 -105.985291 1231.419434
172 1158.364380 -417.834747 0.000477 -0.000105 0.000046 -105.985291 1231.419434
[Ping_Mechanism]
170 1240.247437 -439.121887 -37.250881 0.000103 -0.000053 82.120995 1316.217896
171 1240.246704 -439.127075 -37.250599 0.000103 -0.000053 82.120995 1316.218750
172 1240.245972 -439.132324 -37.250324 0.000103 -0.000053 82.120995 1316.219971
[BN_LookIK]
170 193.241119 1380.371704 -0.002861 0.000000 89.965736 -31.038179 1393.832153
171 193.241119 1380.371704 -0.002861 0.000000 89.965736 -31.038179 1393.832153
172 193.241119 1380.371704 -0.002861 0.000000 89.965736 -31.038179 1393.832153
[bottomMouth]
170 -435.092926 615.759399 -0.000954 -0.000022 0.000016 73.527184 753.966492
171 -435.092926 615.759399 -0.000954 -0.000022 0.000016 73.527184 753.966492
172 -435.092926 615.759399 -0.000954 -0.000022 0.000016 73.527184 753.966492
[L_Mouth01]
170 554.440979 7.658243 838.222046 150.204178 23.759130 109.605339 1005.027161
171 554.440979 7.658243 838.222046 150.204178 23.759130 109.605339 1005.027161
172 554.440979 7.658243 838.222046 150.204178 23.759130 109.605339 1005.027161
[L_mouthFront]
170 551.629089 934.514771 339.150421 0.000081 2.804060 79.119301 1136.941284
171 551.629089 934.514771 339.150421 0.000081 2.804060 79.119301 1136.941284
172 551.629089 934.514771 339.150421 0.000081 2.804060 79.119301 1136.941284
[mouthGun]
170 55.332661 1627.420898 0.000000 0.000023 0.000009 -11.038128 1628.361328
171 55.332661 1627.420898 0.000000 0.000023 0.000009 -11.038128 1628.361328
172 55.332661 1627.420898 0.000000 0.000023 0.000009 -11.038128 1628.361328
[R_Mouth01]
170 554.442383 7.659197 -838.223938 29.795891 -23.759109 109.605331 1005.029541
171 554.442383 7.659197 -838.223938 29.795891 -23.759109 109.605331 1005.029541
172 554.442383 7.659197 -838.223938 29.795891 -23.759109 109.605331 1005.029541
[R_mouthFront]
170 551.629089 934.514282 -339.151367 0.000029 -2.803930 79.119133 1136.941162
171 551.629089 934.514282 -339.151367 0.000029 -2.803930 79.119133 1136.941162
172 551.629089 934.514282 -339.151367 0.000029 -2.803930 79.119133 1136.941162
[TopMouth]
170 461.269867 -56.106091 -0.008583 -0.000059 -0.000268 92.025169 464.669525
171 461.269867 -56.106091 -0.008583 -0.000059 -0.000268 92.025169 464.669525
172 461.269867 -56.106091 -0.008583 -0.000059 -0.000268 92.025169 464.669525
[weapon_bone]
170 -987.239868 1448.372803 0.001431 0.000000 89.965736 -31.038221 1752.833740
171 -987.239868 1448.372803 0.001431 0.000000 89.965736 -31.038221 1752.833740
172 -987.239868 1448.372803 0.001431 0.000000 89.965736 -31.038221 1752.833740
